<?xml version="1.0" encoding="utf-8"?>
<!-- Generator: Adobe Illustrator 17.0.0, SVG Export Plug-In . SVG Version: 6.00 Build 0)  -->
<!DOCTYPE svg PUBLIC "-//W3C//DTD SVG 1.1//EN" "http://www.w3.org/Graphics/SVG/1.1/DTD/svg11.dtd">
<svg version="1.1" id="Layer_1" xmlns="http://www.w3.org/2000/svg" xmlns:xlink="http://www.w3.org/1999/xlink" x="0px" y="0px"
	 width="841.89px" height="1190.551px" viewBox="0 0 841.89 1190.551" enable-background="new 0 0 841.89 1190.551"
	 xml:space="preserve">
<g>
	<path d="M309.051,469.877v24.149H155.644v-45.31c0-36.569,49.679-38.639,80.498-38.869c-7.13-4.83-18.17-8.05-35.649-8.05h-43.699
		v-22.77h46.229c69.459,0.46,83.028,15.41,83.028,69.688C286.051,468.267,295.481,469.877,309.051,469.877z M248.792,448.717
		c0-5.289,0-10.81-0.46-16.1c-4.37-0.46-10.811-0.46-20.7-0.46c-23.229,0-34.729,6.9-34.729,16.56c0,19.55,9.43,21.16,23,21.16h9.89
		C239.362,469.877,248.792,468.267,248.792,448.717z"/>
	<path d="M383.339,374.889h-60.948v-22.77h60.488L383.339,374.889z M405.879,469.877v24.149H322.62v-24.149
		c13.57,0,23-1.61,23-21.16v-46.919h-23.229v-22.77h60.948l-0.46,69.919C382.879,468.267,392.31,469.877,405.879,469.877z"/>
	<path d="M526.397,379.028l-0.46,69.919v45.079H417.149v-24.149h48.529c13.569,0,22.999-1.61,22.999-21.16l-80.729-69.688h45.079
		l35.649,30.59v-30.59H526.397z"/>
	<path d="M603.677,374.889h-62.329v-22.77h62.1l67.389,8.97v23L603.677,374.889z M671.756,469.877v24.149H541.348V379.028h37.26
		c27.6,0.23,92.688,3.91,92.688,38.869v45.31h-89.469c3.68,5.979,10.81,6.67,19.779,6.67H671.756z M578.608,417.897
		c0,19.55,9.43,21.16,22.999,21.16h9.431c13.569,0,22.999-1.61,22.999-21.16c0-9.659-11.5-16.56-34.729-16.56
		c-9.89,0-16.329,0-20.699,0.46V417.897z"/>
</g>
</svg>
